<?xml version="1.0" encoding="iso-8859-1"?>
<svg version="1.1" id="Capa_1" xmlns="http://www.w3.org/2000/svg"
	 xmlns:xlink="http://www.w3.org/1999/xlink" x="0px" y="0px"
	 width="40" height="40"
	 viewBox="0 0 420 460" xml:space="preserve">
<g>
	<g>
		<path style="fill: rgb(33, 33, 33);" d="M209.789,8.853c-6.057,0.265-12.018,2.419-16.844,6.088s-8.498,8.835-10.375,14.6l-33.781,104
			c-0.587,1.803-2.091,3.855-3.625,4.969s-3.979,1.937-5.875,1.938H29.945c-6.276,0.01-12.534,2.051-17.608,5.744
			s-8.941,9.019-10.881,14.989c-1.939,5.969-1.942,12.551-0.006,18.521c1.935,5.971,5.798,11.299,10.87,14.996l88.437,64.25
			c1.535,1.115,3.039,3.195,3.625,5s0.587,4.383,0,6.188c0,0.01,0,0.021,0,0.031L70.601,374.134
			c-1.934,5.974-1.929,12.558,0.015,18.528c1.944,5.97,5.815,11.296,10.895,14.987c5.08,3.69,11.342,5.726,17.62,5.729
			c6.279,0,12.543-2.027,17.626-5.713l88.469-64.281c1.534-1.114,3.979-1.906,5.875-1.906s4.341,0.793,5.875,1.906l88.469,64.281
			c5.083,3.686,11.347,5.716,17.626,5.713c6.279,0,12.541-2.039,17.62-5.729c5.08-3.69,8.952-9.016,10.895-14.987
			s1.949-12.555,0.015-18.528L317.82,270.165c0-0.01,0-0.021,0-0.031c-0.587-1.804-0.586-4.383,0-6.188s2.09-3.885,3.625-5
			l88.438-64.25c5.072-3.697,8.935-9.026,10.87-14.996c1.935-5.971,1.933-12.552-0.006-18.521
			c-1.939-5.969-5.806-11.296-10.881-14.989s-11.332-5.734-17.608-5.744H282.945c-1.896,0-4.341-0.823-5.875-1.938
			c-1.534-1.114-3.038-3.166-3.625-4.969l-33.812-104c-2.012-6.181-6.095-11.668-11.437-15.371
			C222.854,10.466,216.283,8.568,209.789,8.853L209.789,8.853z"/>
	</g>
	<g>
	</g>
	<g>
	</g>
	<g>
	</g>
	<g>
	</g>
	<g>
	</g>
	<g>
	</g>
	<g>
	</g>
	<g>
	</g>
	<g>
	</g>
	<g>
	</g>
	<g>
	</g>
	<g>
	</g>
	<g>
	</g>
	<g>
	</g>
	<g>
	</g>
</g>
<g>
</g>
<g>
</g>
<g>
</g>
<g>
</g>
<g>
</g>
<g>
</g>
<g>
</g>
<g>
</g>
<g>
</g>
<g>
</g>
<g>
</g>
<g>
</g>
<g>
</g>
<g>
</g>
<g>
</g>
</svg>
